<?xml version="1.0" encoding="UTF-8" standalone="no"?>
<svg
   xmlns:dc="http://purl.org/dc/elements/1.1/"
   xmlns:cc="http://creativecommons.org/ns#"
   xmlns:rdf="http://www.w3.org/1999/02/22-rdf-syntax-ns#"
   xmlns:svg="http://www.w3.org/2000/svg"
   xmlns="http://www.w3.org/2000/svg"
   xmlns:sodipodi="http://sodipodi.sourceforge.net/DTD/sodipodi-0.dtd"
   xmlns:inkscape="http://www.inkscape.org/namespaces/inkscape"
   width="472.94406"
   height="892.27148"
   id="svg5272"
   version="1.1"
   inkscape:version="0.91+devel r"
   sodipodi:docname="Taiwan mainland curve.svg"
   viewBox="0 0 472.94407 892.27148">
  <title
     id="title4284">Free area of the Republic of China</title>
  <defs
     id="defs5461" />
  <sodipodi:namedview
     pagecolor="#ffffff"
     bordercolor="#666666"
     borderopacity="1"
     objecttolerance="10"
     gridtolerance="10"
     guidetolerance="10"
     inkscape:pageopacity="0"
     inkscape:pageshadow="2"
     inkscape:window-width="960"
     inkscape:window-height="965"
     id="namedview5459"
     showgrid="false"
     inkscape:zoom="0.70710678"
     inkscape:cx="278.52575"
     inkscape:cy="453.43522"
     inkscape:window-x="960"
     inkscape:window-y="24"
     inkscape:window-maximized="0"
     inkscape:current-layer="svg5272"
     inkscape:document-units="px"
     fit-margin-top="0"
     fit-margin-left="0"
     fit-margin-right="0"
     fit-margin-bottom="0" />
  <metadata
     id="metadata136">image/svg+xml<rdf:RDF>
  <cc:Work
     rdf:about="">
    <dc:format>image/svg+xml</dc:format>
    <dc:type
       rdf:resource="http://purl.org/dc/dcmitype/StillImage" />
    <dc:title>Free area of the Republic of China</dc:title>
    <dc:source>https://commons.wikimedia.org/wiki/File:Taiwan2011.svg; https://commons.wikimedia.org/wiki/File:Subdivision_types_of_the_Republic_of_China_(2010).svg;</dc:source>
  </cc:Work>
</rdf:RDF>
</metadata>
  <path
     style="fill:none;stroke:#dd4814;stroke-width:10"
     d="m 370.13019,5.0844788 c -48.18188,21.4341902 -28.15404,37.8216602 -83.3457,49.6532102 -37.90502,8.16929 -52.43189,41.04772 -70.58837,70.796191 1.12027,26.2021 -19.95205,43.62947 -36.55239,54.12059 -15.83834,15.61754 -29.36915,52.15268 -48.40445,75.05116 -10.93259,15.4735 -16.02622,35.4342 -28.31504,59.38379 -23.55137,21.84153 -25.38507,56.2667 -52.09947,76.06367 -20.44945,23.51769 -12.38866,60.5171 -24.47941,81.4964 20.97193,19.85239 -0.883,45.06705 -2.10764,62.68606 -14.13721,16.00865 -3.74847,34.64399 -16.2725602,46.63599 28.0956202,18.7027 36.1563502,45.11619 42.5660902,76.17645 16.90561,24.13947 0.3968,54.86279 32.92329,72.66117 16.59627,26.01173 -15.82604,-16.02814 15.99307,7.43275 26.22648,20.7486 54.82589,39.56178 61.7448,74.76742 10.54283,24.21727 -6.64253,49.145 10.20774,69.7484 7.47328,-25.5989 43.82546,28.091 26.30137,-12.3025 27.53913,-26.90743 2.41117,-70.97813 16.43238,-104.03188 14.23322,-29.54226 14.90485,-69.35448 45.21012,-86.41376 26.13238,-13.03831 18.87779,-39.9768 40.207,-55.07453 14.76585,-28.26296 30.54895,-52.40465 34.54338,-80.43411 12.19695,-28.02919 21.46727,-58.31386 25.4728,-89.14074 7.81977,-37.66895 14.76488,-78.5458 27.5522,-112.41907 -12.62464,-31.54205 16.29964,-55.86298 30.38934,-82.74163 0.31617,-28.16411 24.75863,-45.44746 23.55661,-69.53986 -8.50047,-16.52437 -25.63309,-68.89976 4.97832,-90.737521 13.14115,-12.02774 36.76828,-20.83027 9.12968,-25.41841 -4.70503,-16.33998 -1.18129,-29.29768 -24.01095,-23.60693 -12.59493,-9.8589 -32.42406,-1.20187 -32.47786,-21.78817 -14.75342,7.43293 -13.70251,-21.8507702 -28.55435,-23.0241402 z"
     id="svg_29"
     inkscape:connector-curvature="0"
     sodipodi:nodetypes="ccccccccccccccccccccccccccccc" />
</svg>
