<?xml version="1.0" encoding="UTF-8" standalone="no"?>
<!-- Generator: Adobe Illustrator 14.0.0, SVG Export Plug-In  -->

<svg
   xmlns:dc="http://purl.org/dc/elements/1.1/"
   xmlns:cc="http://creativecommons.org/ns#"
   xmlns:rdf="http://www.w3.org/1999/02/22-rdf-syntax-ns#"
   xmlns:svg="http://www.w3.org/2000/svg"
   xmlns="http://www.w3.org/2000/svg"
   xmlns:sodipodi="http://sodipodi.sourceforge.net/DTD/sodipodi-0.dtd"
   xmlns:inkscape="http://www.inkscape.org/namespaces/inkscape"
   version="1.1"
   x="0px"
   y="0px"
   width="285px"
   height="285px"
   viewBox="-0.866 -0.866 285 285"
   enable-background="new -0.866 -0.866 285 285"
   xml:space="preserve"
   id="svg8"
   inkscape:version="0.91+devel r"
   sodipodi:docname="Ubuntu Circle of Friends (white and orange, hex).Taiwan.svg"><metadata
     id="metadata12"><rdf:RDF><cc:Work
         rdf:about=""><dc:format>image/svg+xml</dc:format><dc:type
           rdf:resource="http://purl.org/dc/dcmitype/StillImage" /><dc:title></dc:title></cc:Work></rdf:RDF></metadata><sodipodi:namedview
     pagecolor="#ffffff"
     bordercolor="#666666"
     borderopacity="1"
     objecttolerance="10"
     gridtolerance="10"
     guidetolerance="10"
     inkscape:pageopacity="0"
     inkscape:pageshadow="2"
     inkscape:window-width="1920"
     inkscape:window-height="993"
     id="namedview10"
     showgrid="false"
     inkscape:zoom="2.3421361"
     inkscape:cx="124.25454"
     inkscape:cy="143.99573"
     inkscape:window-x="0"
     inkscape:window-y="24"
     inkscape:window-maximized="1"
     inkscape:current-layer="svg8" /><defs
     id="defs2" /><path
     fill="#DD4814"
     d="M283.465,141.734c0,78.273-63.457,141.73-141.734,141.73S0,220.008,0,141.734C0,63.455,63.453,0,141.73,0  S283.465,63.455,283.465,141.734z"
     id="path4" /><path
     fill="#FFFFFF"
     d="M45.356,122.812c-10.453,0-18.923,8.47-18.923,18.923c0,10.449,8.47,18.92,18.923,18.92  c10.449,0,18.92-8.471,18.92-18.92C64.276,131.281,55.806,122.812,45.356,122.812z M180.463,208.814  c-9.051,5.225-12.149,16.793-6.926,25.84c5.226,9.051,16.793,12.151,25.844,6.926c9.048-5.224,12.148-16.792,6.923-25.842  C201.08,206.691,189.511,203.59,180.463,208.814z M86.458,141.732c0-18.701,9.293-35.219,23.504-45.221L96.128,73.338  c-16.56,11.064-28.878,27.978-33.995,47.788c5.977,4.872,9.796,12.291,9.796,20.608c0,8.315-3.819,15.734-9.797,20.605  c5.116,19.812,17.435,36.726,33.995,47.789l13.835-23.175C95.751,176.953,86.458,160.436,86.458,141.732z M141.733,86.457  c28.877,0,52.564,22.141,55.047,50.373l26.968-0.394c-1.327-20.844-10.432-39.562-24.425-53.319  c-7.194,2.718-15.505,2.306-22.688-1.842c-7.192-4.152-11.705-11.156-12.941-18.757c-6.992-1.935-14.351-2.99-21.96-2.99  c-13.086,0-25.449,3.072-36.431,8.512l13.146,23.56C125.526,88.307,133.412,86.457,141.733,86.457z M141.733,197.008  c-8.322,0-16.207-1.85-23.285-5.143L105.3,215.427c10.983,5.438,23.347,8.511,36.433,8.511c7.609,0,14.968-1.055,21.961-2.99  c1.236-7.601,5.75-14.605,12.943-18.76c7.183-4.146,15.494-4.558,22.688-1.839c13.992-13.758,23.097-32.476,24.422-53.32  l-26.968-0.394C194.298,174.871,170.61,197.008,141.733,197.008z M180.46,74.649c9.05,5.227,20.619,2.126,25.842-6.921  c5.226-9.051,2.128-20.619-6.923-25.845c-9.049-5.224-20.617-2.124-25.843,6.927C168.312,57.857,171.412,69.426,180.46,74.649z"
     id="path6" /><path
     sodipodi:nodetypes="ccccccccccccccccccccccccccccc"
     inkscape:connector-curvature="0"
     id="svg_29"
     d="m 153.42496,101.714 c -4.25185,1.94003 -2.48448,3.42327 -7.35492,4.49417 -3.34496,0.7394 -4.6269,3.71527 -6.22913,6.40783 0.0988,2.37158 -1.76069,3.94895 -3.22561,4.89851 -1.39767,1.41355 -2.59171,4.72039 -4.2715,6.79295 -0.96476,1.40052 -1.41425,3.20719 -2.49869,5.37489 -2.07831,1.9769 -2.24012,5.09276 -4.59756,6.88461 -1.80459,2.1286 -1.09325,5.47746 -2.16021,7.37631 1.85068,1.79687 -0.0779,4.07907 -0.18599,5.67378 -1.24755,1.44896 -0.33079,3.13567 -1.43599,4.22107 2.47932,1.69281 3.19065,4.08352 3.75629,6.89482 1.49185,2.18488 0.035,4.96568 2.90535,6.57663 1.46454,2.35435 -1.39659,-1.45072 1.41131,0.67274 2.31439,1.87798 4.83817,3.58078 5.44874,6.76728 0.93036,2.19193 -0.58618,4.44817 0.90079,6.313 0.65948,-2.31698 3.86741,2.54255 2.32099,-1.11351 2.43021,-2.43542 0.21277,-6.4243 1.45009,-9.41603 1.25602,-2.6739 1.31529,-6.27735 3.98961,-7.8214 2.30608,-1.18012 1.66589,-3.61834 3.54811,-4.98486 1.30302,-2.5581 2.69582,-4.74319 3.04831,-7.28017 1.07633,-2.53694 1.8944,-5.27805 2.24787,-8.06822 0.69007,-3.40945 1.30294,-7.10926 2.43137,-10.17516 -1.11407,-2.8549 1.43838,-5.05621 2.68174,-7.48903 0.0279,-2.54916 2.18485,-4.11349 2.07878,-6.29412 -0.75014,-1.49564 -2.26202,-6.23619 0.43931,-8.21275 1.15965,-1.08864 3.24466,-1.88537 0.80566,-2.30064 -0.4152,-1.47895 -0.10425,-2.65177 -2.11887,-2.13669 -1.11145,-0.89234 -2.86129,-0.10878 -2.86604,-1.97207 -1.30193,0.67276 -1.20919,-1.97774 -2.51981,-2.08394 z"
     style="fill:none;stroke:#ffffff;stroke-width:4" /></svg>