<?xml version="1.0" encoding="utf-8"?>
<!-- Generator: Adobe Illustrator 15.1.0, SVG Export Plug-In . SVG Version: 6.00 Build 0)  -->
<!DOCTYPE svg PUBLIC "-//W3C//DTD SVG 1.1//EN" "http://www.w3.org/Graphics/SVG/1.1/DTD/svg11.dtd">
<svg version="1.1" id="Layer_1" xmlns="http://www.w3.org/2000/svg" xmlns:xlink="http://www.w3.org/1999/xlink" x="0px" y="0px"
	 width="141.732px" height="141.732px" viewBox="70.866 70.866 141.732 141.732"
	 enable-background="new 70.866 70.866 141.732 141.732" xml:space="preserve">
<path fill="#DD4814" d="M181.898,140.313c-0.939,0-1.842-0.373-2.506-1.037l-30.067-30.061l-37.632,37.622
	c-1.038,1.037-2.398,1.558-3.759,1.558c-1.36,0-2.721-0.521-3.759-1.558c-2.076-2.076-2.076-5.441,0-7.516l40.087-40.077
	c0.019-0.018,0.028-0.038,0.047-0.056l12.196-12.195c-4.765-1.279-9.724-1.953-14.79-1.953c-15.145,0-29.384,5.897-40.094,16.605
	c-22.11,22.104-22.11,58.07,0,80.175c10.711,10.707,24.952,16.604,40.099,16.604s29.388-5.897,40.097-16.604
	c10.711-10.709,16.608-24.944,16.607-40.086c0-5.006-0.658-9.908-1.91-14.621L184.41,139.27
	C183.746,139.937,182.854,140.327,181.898,140.313z M133.933,144.121c-1.361,0-2.722-0.52-3.76-1.557
	c-2.076-2.074-2.076-5.44,0-7.517l15.037-15.033c2.076-2.076,5.442-2.076,7.519,0c2.076,2.075,2.076,5.44,0,7.517l-15.037,15.032
	C136.654,143.604,135.293,144.121,133.933,144.121z M144.794,154.982c-1.36,0-2.721-0.521-3.759-1.559
	c-2.075-2.074-2.075-5.441,0-7.516l15.037-15.033c2.076-2.076,5.441-2.076,7.519,0c2.076,2.075,2.076,5.44,0,7.517l-15.037,15.032
	C147.516,154.463,146.154,154.982,144.794,154.982z M174.453,149.251l-15.037,15.032c-1.038,1.037-2.398,1.558-3.759,1.558
	c-1.361,0-2.722-0.521-3.761-1.558c-2.074-2.074-2.074-5.44,0-7.516l15.037-15.034c2.076-2.075,5.442-2.075,7.52,0
	C176.529,143.811,176.529,147.176,174.453,149.251z"/>
</svg>
