<?xml version="1.0" encoding="utf-8"?>
<!-- Generator: Adobe Illustrator 15.1.0, SVG Export Plug-In . SVG Version: 6.00 Build 0)  -->
<!DOCTYPE svg PUBLIC "-//W3C//DTD SVG 1.1//EN" "http://www.w3.org/Graphics/SVG/1.1/DTD/svg11.dtd">
<svg version="1.1" id="Layer_1" xmlns="http://www.w3.org/2000/svg" xmlns:xlink="http://www.w3.org/1999/xlink" x="0px" y="0px"
	 width="141.732px" height="141.732px" viewBox="70.866 70.866 141.732 141.732"
	 enable-background="new 70.866 70.866 141.732 141.732" xml:space="preserve">
<path fill="#DD4814" d="M146.725,146.777c-2.77,2.769-7.258,2.766-10.022-0.002c-2.767-2.767-2.767-7.253,0-10.021
	c2.769-2.768,7.253-2.769,10.021-0.002C149.489,139.522,149.489,144.01,146.725,146.777 M198.426,141.732
	c0,31.263-25.433,56.694-56.693,56.694c-31.26,0-56.693-25.431-56.693-56.694c0-31.26,25.434-56.693,56.693-56.693
	C172.993,85.039,198.426,110.472,198.426,141.732z M133.726,106.509h5.198v-9.751h0.051l5.477,9.751h5.35v-17.85H144.6v9.55h-0.05
	l-5.199-9.55h-5.625V106.509z M112.743,132.902h-5.423l-2.227,11.176h-0.05l-2.1-11.176h-4.851l-2.149,11.026h-0.05l-2.176-11.026
	h-5.4l4.851,17.85h5.375l1.875-10.875h0.05l1.925,10.875h5.351L112.743,132.902z M149.845,188.755c0-3.272-2.501-4.446-5.023-5.147
	c-2.525-0.701-5.076-0.977-5.176-2.25c0-1.002,1.224-1.2,1.976-1.2c0.55,0,1.174,0.126,1.624,0.45c0.45,0.3,0.75,0.75,0.651,1.424
	h5.198c-0.149-4.352-3.575-5.824-7.45-5.824c-3.676,0-7.2,1.773-7.2,5.9c0,3.599,3.226,4.373,6.051,5.175
	c3.074,0.874,3.85,1.125,3.85,2.051c0,1.324-1.375,1.624-2.273,1.624c-1.026,0-2.227-0.227-2.626-1.299
	c-0.126-0.325-0.2-0.725-0.2-1.178h-5.499c0.048,5.701,5.824,6.426,7.85,6.426C145.57,194.904,149.845,193.404,149.845,188.755z
	 M170.328,166.796c0-0.476-0.1-0.927-0.27-1.342l-12.453-37.36c-0.006-0.025-0.021-0.048-0.027-0.072
	c-0.024-0.066-0.051-0.13-0.08-0.193c-0.032-0.076-0.062-0.149-0.1-0.221c-0.031-0.063-0.067-0.123-0.104-0.185
	c-0.04-0.068-0.079-0.136-0.125-0.201c-0.039-0.059-0.084-0.116-0.127-0.171c-0.047-0.062-0.094-0.123-0.145-0.179
	c-0.049-0.056-0.102-0.107-0.154-0.16c-0.053-0.053-0.104-0.105-0.158-0.153c-0.059-0.051-0.117-0.097-0.18-0.144
	c-0.057-0.043-0.111-0.087-0.172-0.127c-0.063-0.045-0.133-0.083-0.202-0.124c-0.061-0.035-0.119-0.072-0.183-0.104
	c-0.07-0.037-0.146-0.067-0.222-0.1c-0.063-0.027-0.127-0.055-0.192-0.079c-0.024-0.009-0.048-0.02-0.072-0.029l-37.583-12.527
	c-0.021-0.007-0.041-0.008-0.063-0.015c-0.106-0.035-0.218-0.056-0.326-0.079c-0.088-0.018-0.172-0.041-0.26-0.053
	c-0.102-0.013-0.202-0.015-0.306-0.02c-0.094-0.005-0.188-0.012-0.281-0.009c-0.099,0.003-0.197,0.019-0.296,0.029
	c-0.094,0.012-0.188,0.02-0.283,0.038c-0.094,0.019-0.187,0.05-0.281,0.077c-0.095,0.027-0.19,0.052-0.283,0.088
	c-0.085,0.032-0.164,0.073-0.246,0.112c-0.101,0.047-0.199,0.093-0.294,0.149c-0.021,0.011-0.042,0.019-0.062,0.03
	c-0.056,0.035-0.102,0.078-0.154,0.116c-0.093,0.064-0.184,0.127-0.271,0.201c-0.071,0.061-0.134,0.125-0.199,0.19
	c-0.075,0.073-0.148,0.146-0.218,0.228c-0.062,0.076-0.119,0.156-0.176,0.236c-0.044,0.06-0.095,0.116-0.134,0.181
	c-0.015,0.022-0.021,0.047-0.036,0.071c-0.047,0.082-0.086,0.168-0.127,0.253c-0.047,0.094-0.095,0.189-0.132,0.286
	c-0.03,0.078-0.049,0.16-0.072,0.24c-0.034,0.108-0.068,0.215-0.091,0.326c-0.015,0.078-0.02,0.157-0.03,0.236
	c-0.015,0.114-0.03,0.228-0.035,0.343c-0.002,0.079,0.006,0.159,0.01,0.238c0.003,0.117,0.007,0.232,0.022,0.348
	c0.01,0.076,0.03,0.15,0.046,0.226c0.023,0.121,0.048,0.24,0.086,0.358c0.006,0.019,0.007,0.039,0.014,0.058l12.526,37.583
	c0.008,0.024,0.02,0.049,0.029,0.073c0.022,0.062,0.049,0.124,0.075,0.187c0.031,0.076,0.066,0.154,0.103,0.229
	c0.03,0.061,0.065,0.116,0.099,0.176c0.042,0.068,0.084,0.144,0.13,0.211c0.039,0.055,0.081,0.107,0.121,0.161
	c0.05,0.063,0.099,0.128,0.151,0.188c0.046,0.051,0.096,0.099,0.146,0.148c0.055,0.057,0.11,0.111,0.168,0.163
	c0.056,0.048,0.112,0.091,0.169,0.136c0.06,0.045,0.119,0.095,0.182,0.136c0.062,0.044,0.127,0.081,0.189,0.118
	c0.065,0.035,0.129,0.076,0.198,0.109c0.067,0.035,0.136,0.062,0.205,0.094c0.068,0.028,0.139,0.06,0.21,0.086
	c0.023,0.008,0.044,0.02,0.067,0.025l37.583,12.527c0.093,0.029,0.187,0.045,0.279,0.068c0.071,0.019,0.144,0.041,0.217,0.053
	c0.205,0.037,0.41,0.061,0.613,0.061c0.006,0,0.008,0,0.012,0c0.002,0,0.004,0,0.007,0c0.028,0,0.059,0,0.089,0
	c0.129-0.005,0.258-0.014,0.385-0.031h0.003c0.156-0.021,0.31-0.056,0.46-0.097c0.008-0.003,0.016-0.004,0.024-0.006
	C169.232,169.788,170.328,168.423,170.328,166.796z M194.768,150.618v-4.575h-9.55v-2.227h8.425v-4.25h-8.425v-2.226h9.275v-4.576
	h-14.776v17.852L194.768,150.618L194.768,150.618z"/>
</svg>
