<?xml version="1.0" encoding="utf-8"?>
<!-- Generator: Adobe Illustrator 15.1.0, SVG Export Plug-In . SVG Version: 6.00 Build 0)  -->
<!DOCTYPE svg PUBLIC "-//W3C//DTD SVG 1.1//EN" "http://www.w3.org/Graphics/SVG/1.1/DTD/svg11.dtd">
<svg version="1.1" id="Layer_1" xmlns="http://www.w3.org/2000/svg" xmlns:xlink="http://www.w3.org/1999/xlink" x="0px" y="0px"
	 width="141.732px" height="141.732px" viewBox="70.866 70.866 141.732 141.732"
	 enable-background="new 70.866 70.866 141.732 141.732" xml:space="preserve">
<path fill="#DD4814" d="M175.463,96.191h-67.458c-13.925,10.34-22.965,26.905-22.965,45.542c0,31.259,25.438,56.693,56.696,56.693
	c31.258,0,56.689-25.434,56.689-56.693C198.425,123.094,189.388,106.53,175.463,96.191z M92.683,141.918
	c-1.266-2.19-1.266-4.887,0-7.076c5.688-9.823,16.259-15.924,27.59-15.924c8.028,0,15.678,3.064,21.475,8.343l-0.019,0.023
	c5.8-5.285,13.453-8.354,21.487-8.354c3.9,0,7.062,3.164,7.062,7.062c0,3.901-3.161,7.063-7.062,7.063
	c-4.81,0-9.371,1.976-12.672,5.338c3.301,3.363,7.862,5.339,12.672,5.339c3.9,0,7.062,3.164,7.062,7.062
	c0,3.9-3.161,7.062-7.062,7.062c-8.034,0-15.681-3.064-21.477-8.351v0.002c-5.8,5.273-13.44,8.334-21.466,8.334
	C108.939,157.846,98.371,151.742,92.683,141.918z M173.372,175.609c-2.845,4.91-8.128,7.963-13.794,7.963
	c-4.012,0-7.834-1.529-10.734-4.166l0.014-0.014c-2.9,2.647-6.73,4.184-10.75,4.184c-1.95,0-3.535-1.578-3.535-3.529
	c0-1.949,1.585-3.531,3.535-3.531c2.402,0,4.684-0.986,6.333-2.67c-1.65-1.682-3.932-2.668-6.333-2.668
	c-1.95,0-3.535-1.582-3.535-3.531c0-1.951,1.585-3.533,3.535-3.533c4.024,0,7.859,1.544,10.758,4.195l-0.024-0.031
	c2.899-2.639,6.719-4.168,10.736-4.168c5.666,0,10.949,3.05,13.794,7.961C174.003,173.166,174.003,174.516,173.372,175.609z
	 M168.362,172.1c0,1.957-1.587,3.543-3.544,3.543c-1.956,0-3.543-1.586-3.543-3.543c0-1.959,1.587-3.545,3.543-3.545
	C166.775,168.555,168.362,170.141,168.362,172.1z M116.876,134.9c0,3.912-3.172,7.086-7.087,7.086c-3.912,0-7.085-3.174-7.085-7.086
	c0-3.914,3.173-7.087,7.085-7.087C113.705,127.813,116.876,130.986,116.876,134.9z"/>
</svg>
