<?xml version="1.0" encoding="utf-8"?>
<!-- Generator: Adobe Illustrator 15.1.0, SVG Export Plug-In . SVG Version: 6.00 Build 0)  -->
<!DOCTYPE svg PUBLIC "-//W3C//DTD SVG 1.1//EN" "http://www.w3.org/Graphics/SVG/1.1/DTD/svg11.dtd">
<svg version="1.1" id="Layer_1" xmlns="http://www.w3.org/2000/svg" xmlns:xlink="http://www.w3.org/1999/xlink" x="0px" y="0px"
	 width="141.732px" height="141.732px" viewBox="70.866 70.866 141.732 141.732"
	 enable-background="new 70.866 70.866 141.732 141.732" xml:space="preserve">
<path fill="#DD4814" d="M141.732,85.039c-31.26,0-56.693,25.433-56.693,56.693c0,0.134,0.005,0.27,0.012,0.403
	c0.201,3.736,3.292,6.703,7.078,6.703h17.716v14.178h3.583c1.956,0,3.543,1.588,3.543,3.543c0,1.959-1.587,3.543-3.543,3.543h-3.583
	v14.588c0,2.529,1.348,4.867,3.536,6.134c8.596,4.976,18.399,7.604,28.352,7.604c31.261,0,56.693-25.431,56.693-56.694
	C198.426,110.472,172.993,85.039,141.732,85.039z M141.49,182.602c-5.192,0-9.61-4.308-9.61-9.607c0-5.191,4.418-9.611,9.61-9.611
	c5.191,0,9.611,4.42,9.611,9.611C151.104,178.294,146.684,182.602,141.49,182.602z M150.111,147.803v2.211
	c0,5.081-3.537,8.619-8.621,8.619c-5.08,0-8.618-3.537-8.618-8.619v-8.84c0-5.966,4.197-6.518,8.727-7.292
	c5.192-0.994,8.399-3.312,8.399-8.397c0-3.422-2.985-7.181-8.064-7.181c-9.832,0-8.399,9.945-17.237,9.945
	c-4.418,0-7.949-3.868-7.949-8.289c0-12.482,14.252-19.553,25.187-19.553c14.583,0,27.282,9.06,27.282,24.526
	C169.216,139.072,161.158,145.594,150.111,147.803z"/>
</svg>
