<?xml version="1.0" encoding="utf-8"?>
<!-- Generator: Adobe Illustrator 15.1.0, SVG Export Plug-In . SVG Version: 6.00 Build 0)  -->
<!DOCTYPE svg PUBLIC "-//W3C//DTD SVG 1.1//EN" "http://www.w3.org/Graphics/SVG/1.1/DTD/svg11.dtd">
<svg version="1.1" id="Layer_1" xmlns="http://www.w3.org/2000/svg" xmlns:xlink="http://www.w3.org/1999/xlink" x="0px" y="0px"
	 width="141.732px" height="141.732px" viewBox="70.866 70.866 141.732 141.732"
	 enable-background="new 70.866 70.866 141.732 141.732" xml:space="preserve">
<path fill="#DD4814" d="M181.818,101.645c-10.706-10.708-24.942-16.605-40.084-16.605c-15.144,0-29.38,5.898-40.089,16.607
	c-10.708,10.708-16.605,24.945-16.606,40.087c0,15.144,5.896,29.38,16.604,40.086c10.708,10.709,24.945,16.604,40.088,16.604
	s29.38-5.896,40.087-16.604c10.709-10.707,16.605-24.943,16.605-40.087C198.424,126.59,192.527,112.353,181.818,101.645z
	 M95.412,157.98l3.693-13.783l10.091,10.09L95.412,157.98z M111.653,151.752l-10.021-10.021l42.646-42.646l10.021,10.021
	L111.653,151.752z M176.854,161.777l-3.811-3.811l4.969-4.97l-2.507-2.505l-4.967,4.97l-2.506-2.506l7.534-7.533l-2.508-2.507
	l-7.533,7.534l-2.504-2.507l4.968-4.965l-2.505-2.506l-4.969,4.967l-2.506-2.508l7.533-7.531l-2.504-2.506l-7.535,7.533L153,137.924
	l4.968-4.968l-2.506-2.506l-4.969,4.968l-2.504-2.504l7.534-7.536l-2.506-2.505l-7.535,7.535l-3.708-3.707l15.032-15.034
	l35.077,35.077L176.854,161.777z"/>
</svg>
