<?xml version="1.0" encoding="utf-8"?>
<!-- Generator: Adobe Illustrator 15.1.0, SVG Export Plug-In . SVG Version: 6.00 Build 0)  -->
<!DOCTYPE svg PUBLIC "-//W3C//DTD SVG 1.1//EN" "http://www.w3.org/Graphics/SVG/1.1/DTD/svg11.dtd">
<svg version="1.1" id="Layer_1" xmlns="http://www.w3.org/2000/svg" xmlns:xlink="http://www.w3.org/1999/xlink" x="0px" y="0px"
	 width="141.732px" height="141.732px" viewBox="70.866 70.866 141.732 141.732"
	 enable-background="new 70.866 70.866 141.732 141.732" xml:space="preserve">
<path fill="#DD4814" d="M206.105,139.002c-1.096-2.648-3.681-4.375-6.547-4.375h-7.592c-3.51-27.917-27.382-49.588-56.236-49.588
	c-31.26,0-56.692,25.434-56.692,56.696c0,31.259,25.426,56.691,56.678,56.691c1.879,0,3.682-0.746,5.012-2.076
	c1.328-1.33,2.075-3.133,2.074-5.012l-0.011-62.832c9.765-2.224,17.835-8.937,21.919-17.849c6.68,6.231,11.354,14.581,12.939,23.97
	h-6.483c-2.866,0-5.451,1.727-6.548,4.375c-1.098,2.647-0.49,5.698,1.536,7.723l14.196,14.196c1.383,1.386,3.196,2.075,5.011,2.075
	c1.813,0,3.628-0.689,5.011-2.075l14.195-14.196C206.598,144.7,207.204,141.65,206.105,139.002z M128.618,113.643
	c-4.649-2.041-8.264-6.016-9.807-10.907c3.097-1.348,6.379-2.348,9.805-2.927L128.618,113.643z M106.722,110.687
	c4.088,8.895,12.148,15.594,21.897,17.817l0.001,6.16H93.81C95.389,125.275,100.052,116.923,106.722,110.687z M93.816,148.839
	h34.808l0.001,6.091c-9.762,2.223-17.828,8.935-21.914,17.844C100.055,166.544,95.398,158.21,93.816,148.839z M118.8,180.727
	c1.538-4.908,5.162-8.896,9.826-10.939l0.002,13.874C125.195,183.081,121.904,182.079,118.8,180.727z M142.791,113.649
	l-0.002-13.851c3.434,0.576,6.723,1.574,9.826,2.923C151.074,107.624,147.452,111.608,142.791,113.649z"/>
</svg>
